<?xml version="1.0" encoding="utf-8"?>
<!-- Generator: Adobe Illustrator 27.5.0, SVG Export Plug-In . SVG Version: 6.00 Build 0)  -->
   <svg
      version="1.1"
      xmlns="http://www.w3.org/2000/svg"
      x="0px"
      y="0px"
      width={width}
      height={height}
      viewBox="0 0 532 532"
    >
      <g id="Layer_2">
        <path
          fill="#4AB649"
          d="M247.35,131.47c-0.2,38.24-0.39,76.47-0.59,114.71c-1.59-0.99-6.14-5.93-8.45-8.37
		c-9.89-10.46-10.88-14.77-15.67-15.16c-2.86-0.23-7.07,2.55-12.94,15.88c1.34,1.84,3.49,4.6,6.47,7.65
		c3.48,3.56,5.51,4.85,9.41,8.24c5.61,4.87,7.17,7.72,9.92,11.59c0.87,1.22,6.48,7.08,8.31,16.06c0.57,2.81,0.82,5.48,1.18,9.41
		c0.47,5.13,0.56,8.97,0.59,10c0.19,7.22,1.59,46.38,3.53,100.59c6.27-0.2,12.55-0.39,18.82-0.59c-0.39-12.55-0.78-25.1-1.18-37.65
		c1.58-0.22,3.82-0.57,6.47-1.18c2.97-0.68,9.16-2.28,18.82-7.06c4.98-2.46,12.49-6.22,21.18-12.94
		c11.99-9.28,19.91-19.31,24.71-26.47c1.49-2.22,8.24-12.46,13.53-27.65c3.28-9.41,4.96-17.75,5.88-24.12
		c-11.37,0.2-22.75,0.39-34.12,0.59c-6.36,5.58-8.4,12.31-7.81,14.17c1.13,3.56,6.16,9.62,12.77,13.02
		c9.12,4.7,7.16,2.77,3.85,10.35c-2.73,6.26-0.72,6.59-6.14,6.14c-7.11-0.59-13.48-11.08-20.32-10.74
		c-2.78,0.14-4.96,2.16-7.06,4.12c-1.7,1.58-5.98,5.57-5.29,9.41c0.86,4.81,6.91,12.17,8.91,17.49c1.74,4.62,2.63,3.81-3.57,6.38
		c-5.1,2.11-8.16-5.11-11.23-8.43c-3.79-4.09-7.57-3.81-10.58-4.86c-3.02-1.05-5.95,3.95-8.24,2.94c-1.53-0.68-2.45-3.93-0.59-15.88
		c2.05-13.16,4.24-16.09,4.71-21.76c0.5-6.13,1.02-15.09-8.54-26.57c-0.39-43.53-0.12-86.96-0.51-130.49
		C259.09,130.69,251.86,131.08,247.35,131.47z"
        />
        <circle fill="#4AB649" cx="109.26" cy="186.36" r="20.55" />
        <circle fill="#4AB649" cx="136.32" cy="165.68" r="15.45" />
        <circle fill="#4AB649" cx="198.49" cy="159.43" r="19.4" />
        <circle fill="#4AB649" cx="159.55" cy="260.66" r="9.83" />
        <circle fill="#4AB649" cx="92.28" cy="267.43" r="11.23" />
        <circle fill="#4AB649" cx="108.23" cy="311.21" r="21.57" />
        <circle fill="#4AB649" cx="82.57" cy="347.6" r="20.43" />
        <circle fill="#4AB649" cx="136.19" cy="368.02" r="17.62" />
        <circle fill="#4AB649" cx="196.57" cy="406.45" r="11.87" />
        <circle fill="#4AB649" cx="203.09" cy="438.23" r="23.74" />
        <circle fill="#4AB649" cx="259.26" cy="415.77" r="18.13" />
        <circle fill="#4AB649" cx="175.19" cy="99.11" r="20.87" />
        <path
          fill="#5FB749"
          d="M292.19,165.81v75.83c0,0,29.62-34.21,27.57-34.72c-2.04-0.51-15.32,0-15.32,0l-0.51-45.45L292.19,165.81z"
        />
        <path
          fill="#5FB749"
          d="M282.49,392.79c-1.92,6.28,2.43,12.4,3.06,13.28c3.68,5.04,9.02,6.44,11.74,7.15
		c4.33,1.13,8.03,0.84,10.21,0.51c14.47-0.17,28.94-0.34,43.4-0.51c2.04-2.21,4.09-4.43,6.13-6.64c-2.38-2.38-4.77-4.77-7.15-7.15
		c-13.28-0.17-26.55-0.34-39.83-0.51c-3.06-0.7-9.32-8.49-2.55-14.81C313.97,378.07,285.37,383.34,282.49,392.79z"
        />
        <circle fill="#5FB749" cx="298.45" cy="159.56" r="21.07" />
        <circle fill="#5FB749" cx="364.06" cy="376.83" r="11.62" />
        <circle fill="#5FB749" cx="317.02" cy="442" r="18.57" />
        <circle fill="#5FB749" cx="370.83" cy="411.43" r="22.47" />
        <circle fill="#9BCA4C" cx="346.06" cy="86.15" r="18.13" />
        <circle fill="#9BCA4C" cx="346.06" cy="140.02" r="18.13" />
        <circle fill="#9BCA4C" cx="398.4" cy="125.21" r="16.85" />
        <circle fill="#9BCA4C" cx="427.7" cy="163.96" r="17.17" />
        <circle fill="#9BCA4C" cx="431.21" cy="217.51" r="15.96" />
        <circle fill="#9BCA4C" cx="451.14" cy="265.14" r="19.93" />
        <circle fill="#9BCA4C" cx="399.17" cy="322.57" r="16.09" />
        <circle fill="#9BCA4C" cx="444.17" cy="319.83" r="12.96" />
        <circle fill="#9BCA4C" cx="410.24" cy="371.5" r="17.46" />
        <rect x="341.21" y="95.6" fill="#9BCA4C" width="7.15" height="34.7" />
        <rect
          x="396.49"
          y="265.14"
          fill="#9BCA4C"
          width="48.38"
          height="8.25"
        />
        <circle style={{ fill: '#7CBA55' }} cx="306.03" cy="108.36" r="15.7" />
      </g>
      <g id="Layer_3">
        <path
          fill={color}
          d="M393.3,157.64c-13.58-4.84-46.98,21.19-46.98,21.19c-27.4,21.35-41.1,32.03-48,41.62
		c-15.58,21.65-20.44,42.67-25.28,63.57c-4.31,18.64-5.68,34.51-6.13,45.45c0.66,0.03,1.74,0.05,3.06,0
		c25.17-0.98,50.99-26.46,56.94-53.11c1.84-8.24,2.16-18.32,2.55-30.38c0.26-8,0.15-14.62,0-19.15c9.19,0,18.38,0,27.57,0
		c0.67,8.01,1.06,19.19-0.26,32.43c-1.13,11.34-2.38,23.85-8.43,38.3c-1.75,4.18-8.95,20.57-25.28,36
		c-21.29,20.12-45.21,26.42-56.43,28.6c0.09,13.28,0.17,26.55,0.26,39.83c4.51-0.04,10.89-0.38,18.38-1.79
		c14.54-2.73,24.8-7.87,30.38-10.72c33.22-16.97,53.8-46.78,55.66-49.53c3.63-5.37,15.36-23.49,21.96-50.04
		c2.69-10.83,3.83-20.25,4.34-27.32c0.09-33.11,0.17-66.21,0.26-99.32c-0.16-0.98-0.57-2.53-1.79-3.83
		C396.11,159.43,395.01,158.25,393.3,157.64z"
        />
        <path
          fill={color}
          d="M247.77,362.4c-6.19-0.22-15.42-1.22-25.79-5.11c-16.23-6.09-26.08-15.81-33.19-22.98
		c-5.18-5.23-18.64-19.79-27.32-43.15c-5.69-15.31-7.28-28.92-7.66-38.3c0.43-16.26,0.85-32.51,1.28-48.77
		c7.06,2.89,14.13,5.79,21.19,8.68c1.53-0.17,3.06-0.34,4.6-0.51c1.36-0.68,2.72-1.36,4.09-2.04c-0.17-2.13-0.34-4.26-0.51-6.38
		c-1.12-1.47-2.31-2.92-3.57-4.34c-18.51-20.91-44.78-28.14-64.85-30.64c-0.83,12.26-1.83,30.15-2.3,51.83
		c-0.65,30.19-0.98,45.29,0.51,55.66c7.13,49.65,38.52,81.92,42.89,86.3c8.67,8.68,26.43,26.01,55.4,34.21
		c14.24,4.03,26.69,4.58,35.23,4.34C247.77,388.28,247.77,375.34,247.77,362.4z"
        />
        <circle fill={color} cx="253.38" cy="108.36" r="30.13" />
        <circle fill={color} cx="203.09" cy="221.91" r="28.91" />
        <circle fill={color} cx="200.4" cy="309.68" r="31.02" />
      </g>
    </svg>